# xmcd
#
# Track frame offsets:
#	150
#	11602
#	24242
#	35712
#	47917
#	57862
#	69032
#	83047
#	96112
#	105022
#	119415
#	134972
#	145232
#	165347
#	184672
#
# Disc length: 2694
#
# Revision: 1
# Processed by: cddbd v1.5.1PL0 Copyright (c) Steve Scherf et al.
# Submitted via: dBpowerAMP V4.0
# Normalized: r0:TDELIM( - )
#
DISCID=be0a840f
DTITLE=Various Artist - Soul Sampler 3
DYEAR=1900
DGENRE=
TTITLE0=Volcanoes - It's Gonna Be A False Alarm
TTITLE1=World Column - So Is The Sun
TTITLE2=Jackie Lee - The Shotgun And The Duck
TTITLE3=Curtis Blandon - In The Long Run
TTITLE4=Johnny Wyatt - This Thing Called Love
TTITLE5=Frankie and Johnny - I'll Hold You
TTITLE6=Paaliaments - I Wanna Testify
TTITLE7=Darrll Banks - Angel Baby
TTITLE8=Bobby Barnes - Times Are Bad
TTITLE9=Diane Jenkins - Tow-A-Way Zone
TTITLE10=Cecil Shaw - This I've Got To See
TTITLE11=Cassietta George - Let's Get Together
TTITLE12=Roy Dawson - Over The Top
TTITLE13=Jewel - Paradise
TTITLE14=Btty Fykes - I  Can't Lie To My Heart
EXTD=
EXTT0=
EXTT1=
EXTT2=
EXTT3=
EXTT4=
EXTT5=
EXTT6=
EXTT7=
EXTT8=
EXTT9=
EXTT10=
EXTT11=
EXTT12=
EXTT13=
EXTT14=
PLAYORDER=
